<?xml version="1.0" encoding="UTF-8" standalone="no"?>
<svg width="157px" height="40px" viewBox="0 0 157 40" version="1.1" xmlns="http://www.w3.org/2000/svg" xmlns:xlink="http://www.w3.org/1999/xlink" xmlns:sketch="http://www.bohemiancoding.com/sketch/ns">
    <!-- Generator: Sketch 3.3.2 (12043) - http://www.bohemiancoding.com/sketch -->
    <title>logo</title>
    <desc>Created with Sketch.</desc>
    <defs></defs>
    <g id="Main" stroke="none" stroke-width="1" fill="none" fill-rule="evenodd" sketch:type="MSPage">
        <g sketch:type="MSArtboardGroup" transform="translate(-10.000000, -10.000000)" id="Header-Copy" fill="#FFFFFF">
            <g sketch:type="MSLayerGroup" transform="translate(9.000000, 10.000000)">
                <g id="logo" transform="translate(1.000000, 0.000000)" sketch:type="MSShapeGroup">
                    <path d="M37.9557395,12.5683516 C33.9194762,2.4167033 22.5468711,-2.48791209 12.5507647,1.60967033 C2.55289916,5.70417582 -2.27759944,17.2540659 1.75734454,27.4057143 C3.52920168,31.8584615 6.71142017,35.2984615 10.5708936,37.4171429 L12.7046863,33.3213187 L15.3802829,26.7367033 L15.6898852,25.7472527 C15.6898852,25.7472527 15.8737115,24.6483516 15.8789888,24.2531868 C15.8869048,23.8571429 15.8583193,23.5098901 15.7074762,23.0738462 C15.7074762,23.0738462 15.5029804,22.5112088 15.3319076,21.9164835 L12.6624678,24.5063736 L13.1479804,24.796044 L9.73092157,26.9775824 L10.4213697,27.5138462 L5.8455014,30.3573626 L8.43402241,27.5301099 L8.10726891,27.1191209 L11.6558207,24.2158242 L11.150958,23.9802198 L15.2342773,21.5428571 C15.185902,21.3358242 15.1423641,21.1393407 15.1221345,20.9740659 C15.0530896,20.3608791 15.0227451,20.2452747 14.8828964,19.847033 L9.56732493,19.8096703 L10.2177535,21.6210989 L2.5102409,19.4865934 L7.18505882,19.2224176 L6.74704202,17.9134066 L14.6550924,18.0795604 C14.6669664,18.0127473 14.6801597,17.9542857 14.6981905,17.9072527 C14.8054958,17.6079121 15.152479,17.3336264 15.3890784,17.1898901 C15.6269972,17.0430769 15.7681653,17.1314286 15.9660644,16.9934066 C16.1608852,16.8553846 16.2501597,16.5762637 16.3878095,16.3389011 C16.4392633,16.250989 16.4951148,16.1837363 16.5645994,16.1191209 L15.8781092,15.4923077 L15.645028,16.0026374 L10.1922465,12.429011 L9.87164986,13.3279121 L5.34767507,9.90241758 L5.35603081,9.9010989 L9.29906162,11.8914286 L9.52026891,10.9252747 L15.429098,14.770989 L15.7668459,14.1327473 L17.2704398,15.7134066 C17.4212829,15.6610989 17.5496975,15.6536264 17.8021289,15.6874725 C18.1768179,15.741978 18.2128796,15.5604396 18.3122689,15.3494505 C18.4103389,15.1371429 18.5202829,14.8575824 18.883098,14.6712088 C18.883098,14.6712088 19.1896218,14.4057143 19.7375826,14.4778022 C20.0463053,14.52 20.3691008,14.4804396 20.6030616,14.4417582 C20.6835406,14.3947253 20.7640196,14.3362637 20.8264678,14.2716484 C21.0019384,14.0892308 21.3541989,13.9551648 21.6774342,14.1041758 L21.9852773,8.14681319 L22.553028,8.72395604 L24.0478263,2.87472527 L23.7606527,9.51868132 L23.1216583,9.37494505 L21.8608207,14.1934066 C21.9399804,14.232967 22.023098,14.2742857 22.1088543,14.3125275 C22.3590868,14.3261538 22.6036022,14.3578022 22.7922661,14.4316484 L23.1374902,14.5797802 C23.1374902,14.5797802 23.0134734,13.8734066 23.5948571,13.7243956 C23.5948571,13.7243956 23.5306499,13.6013187 23.6172857,13.589011 C23.6172857,13.589011 24.2958599,14.2545055 24.5065126,14.8118681 C24.5065126,14.8118681 24.7220028,14.9534066 24.8653697,15.1982418 C25.0087367,15.44 25.0922941,15.4250549 25.3099832,15.5903297 C25.5267927,15.752967 25.8412325,16.1243956 25.7717479,16.5279121 C25.6996246,16.9248352 25.6367367,17.196044 25.6411345,17.3907692 L30.3929132,17.4228571 L29.7402857,15.6087912 L37.4460392,17.7446154 L32.7721008,18.0079121 L33.2474986,19.2808791 L25.5430644,19.1191209 C25.5531793,19.3006593 25.5531793,19.4606593 25.5228347,19.5635165 C25.4357591,19.8615385 25.1235182,20.5195604 24.9608011,20.8725275 L24.9484874,20.8962637 L26.2080056,21.1854945 L26.2629776,20.5010989 L30.8529188,22.0927473 L31.0763249,21.5586813 L35.201423,23.338022 L35.3676583,22.9410989 L38.0595266,24.2610989 L35.6411989,23.7630769 L35.5849076,24.447033 L31.6862941,23.2351648 L31.6594678,23.8549451 L27.4723613,22.0443956 L27.3527423,22.6975824 L24.5984258,21.6307692 C24.4189972,22.0021978 24.2325322,22.3898901 24.1498543,22.570989 C24.0306751,22.8404396 23.8956639,23.1112088 23.638395,23.4364835 L25.8610224,25.7793407 L26.3566499,25.3881319 L28.9460504,29.6435165 L29.3875854,29.4734066 L30.8753473,32.8914286 L29.0010224,30.5920879 L28.7252829,31.0971429 L25.8610224,26.8421978 L25.5852829,27.3472527 L23.4660028,23.6413187 L23.4475322,23.6624176 C23.0552521,24.0931868 22.5613838,24.9784615 22.3832745,25.3771429 C22.2034062,25.7758242 22.0679552,26.3204396 21.7851793,27.1938462 L18.7436891,39.7740659 C21.5336275,39.9389011 24.4022857,39.4967033 27.161,38.3643956 C37.1593053,34.2650549 41.9898039,22.7186813 37.9557395,12.5683516 L37.9557395,12.5683516 Z M16.3301989,11.3749451 L15.9326415,11.858022 L12.4650084,3.61582418 L16.5474482,10.1753846 L16.9458852,9.69230769 L18.0189384,14.3415385 L16.3301989,11.3749451 L16.3301989,11.3749451 Z M19.1583978,6.08307692 L18.5119272,6.38593407 L18.4283697,2.00659341 L19.391479,4.65758242 L20.0964398,4.07428571 L20.315888,12.2527473 L19.1583978,6.08307692 L19.1583978,6.08307692 Z M27.8228627,12.4589011 L27.3065658,12.0826374 L25.4071737,14.0382418 L26.6354678,10.876044 L27.0910756,11.1701099 L30.5490336,7.12967033 L27.8228627,12.4589011 L27.8228627,12.4589011 Z" id="Fill-20"></path>
                    <path d="M58.4660084,7.66989011 C58.1757563,7.82241758 58.1454118,7.80659341 57.8709916,7.86857143 L55.994028,7.86857143 L54.7886022,16.3613187 C54.6817367,16.9261538 54.2696667,17.3982418 53.7516106,17.7037363 C53.3395406,17.9472527 52.8663417,18.0848352 52.8359972,17.5213187 L54.1940252,7.86857143 L51.5848347,7.86857143 C51.0355546,7.76175824 51.2338936,7.30373626 51.5237059,6.9221978 C51.9054314,6.44923077 52.4239272,6.09934066 52.9885994,6.06813187 L59.2738768,6.06813187 C59.9454146,6.43428571 58.892591,7.41054945 58.4660084,7.66989011" id="Fill-1"></path>
                    <path d="M67.4567871,7.66989011 C67.1674146,7.82241758 67.1366303,7.80659341 66.8622101,7.86857143 L62.6359636,7.86857143 L62.1482521,11.2531868 L66.907507,11.2531868 C67.5790448,11.6197802 66.5262213,12.5956044 66.0987591,12.8549451 C65.8093866,13.0065934 65.779042,12.9916484 65.5037423,13.0523077 L61.9037367,13.0523077 L61.4762745,16.101978 L66.8622101,16.101978 C67.517916,16.4681319 66.4655322,17.443956 66.03807,17.7037363 C65.7632101,17.8562637 65.7333053,17.84 65.4430532,17.9024176 L59.7980896,17.9024176 C59.5236695,17.8562637 59.477493,17.8105495 59.477493,17.5213187 L60.8816975,7.48615385 C61.1411653,6.75472527 61.8430476,6.09934066 62.6205714,6.06813187 L68.265535,6.06813187 C68.9366331,6.43428571 67.8842493,7.41054945 67.4567871,7.66989011" id="Fill-2"></path>
                    <path d="M76.8446835,10.8413187 C76.7681625,10.0637363 76.5843361,9.25538462 76.0201036,8.73758242 C75.0908571,7.86857143 73.0300672,7.33494505 71.8857703,8.66065934 C71.0167731,9.68263736 70.8175546,12.243956 70.8487787,13.2202198 C70.8945154,14.9586813 72.3906331,16.3318681 74.2042689,16.0720879 C74.7531092,15.9802198 75.2575322,15.8127473 75.699507,15.4004396 C76.0675994,15.0505495 76.2487871,14.5775824 76.4176611,14.12 C76.6912017,13.6931868 77.0267507,13.327033 77.5012689,13.0984615 C78.0202045,12.8549451 78.3381625,12.930989 78.2317367,13.4795604 C78.0650616,13.9367033 77.8957479,14.3635165 77.6226471,14.7758242 C76.4031485,16.6967033 73.8238627,18.3591209 71.672479,17.8250549 C71.1086863,17.672967 70.6038235,17.5050549 70.161409,17.1547253 C69.8566443,16.8953846 69.5518796,16.5292308 69.3381485,16.1938462 C68.4841036,14.7758242 69.0175518,12.1832967 69.4146695,10.6435165 C70.1921933,7.65494505 74.3432381,4.92483516 76.9818936,6.49538462 C77.5606387,6.83076923 78.0650616,7.22769231 78.3702661,7.8378022 C78.6288543,8.34021978 78.7506723,8.88923077 78.8126807,9.46901099 C78.6913025,10.1556044 77.4093557,11.4967033 76.8446835,10.8413187" id="Fill-3"></path>
                    <path d="M88.657944,6.95340659 C88.9781008,6.55604396 90.0762213,5.64131868 90.3519608,6.35868132 L88.9336835,16.4386813 C88.8263782,17.0021978 88.3993557,17.4751648 87.8799804,17.7793407 C87.4679104,18.0237363 86.9951513,18.1604396 86.9630476,17.5969231 L87.6191933,12.9459341 L82.0986863,12.9459341 L81.6092157,16.4386813 C81.5023501,17.0021978 81.0753277,17.4751648 80.5555126,17.7793407 C80.1456415,18.0237363 79.6711232,18.1604396 79.6416583,17.5969231 L81.0599356,7.51736264 C81.1518487,7.24263736 81.1518487,7.21186813 81.3356751,6.95340659 C81.6536331,6.55604396 82.7543922,5.64131868 83.0279328,6.35868132 L82.3418824,11.1463736 L87.865028,11.1463736 L88.3844034,7.51736264 C88.4741176,7.24263736 88.4741176,7.21186813 88.657944,6.95340659" id="Fill-4"></path>
                    <path d="M91.9457087,17.7037363 C91.5336387,17.9472527 91.0617591,18.0848352 91.0314146,17.5213187 L92.3731709,7.92967033 C92.6018543,7.27384615 93.5486919,6.22065934 94.2642073,6.6021978 C95.7594454,9.04175824 97.2551232,11.4817582 98.7512409,13.9213187 L99.6505826,7.48615385 C99.7574482,7.21186813 99.7424958,7.18197802 99.9263221,6.9221978 C100.246479,6.52615385 101.34416,5.61142857 101.61814,6.32791209 L100.199423,16.3613187 C100.077605,17.0483516 98.8110504,18.3903297 98.2463782,17.7345055 C96.7656527,15.3098901 95.2875658,12.8997802 93.8217927,10.476044 L92.9840196,16.3613187 C92.8775938,16.9261538 92.465084,17.3982418 91.9457087,17.7037363" id="Fill-5"></path>
                    <path d="M104.696132,10.2167033 C104.420392,11.9696703 103.904095,13.7538462 105.031681,15.0962637 C105.352717,15.4773626 105.717731,15.7516484 106.222154,15.9046154 C106.634664,16.0575824 106.847955,16.101978 107.320275,16.101978 C108.771095,16.1182418 109.715294,15.1881319 109.929025,13.7687912 C110.31163,11.3287912 110.92028,8.99604396 108.326042,8.03604396 C107.931563,7.88351648 107.824697,7.89846154 107.382283,7.86857143 C105.886605,7.99032967 104.939768,8.64571429 104.696132,10.2167033 L104.696132,10.2167033 Z M108.786048,6.06813187 C110.982289,6.23604396 112.537336,7.79164835 112.249283,10.0949451 C112.187714,10.5516484 112.003448,12.5494505 111.714955,13.4646154 C110.982289,15.8272527 108.373538,17.9024176 105.963566,17.9024176 C103.657821,17.9024176 102.102773,16.0575824 102.393465,13.7687912 C102.5597,12.5182418 102.606756,11.0395604 103.215846,9.78945055 C104.209739,7.73054945 106.358924,6.23604396 108.540213,6.0843956 L108.786048,6.06813187 L108.786048,6.06813187 Z" id="Fill-6"></path>
                    <path d="M114.966218,6.9221978 C115.284616,6.52615385 116.384936,5.61142857 116.658476,6.32791209 L115.284616,16.101978 L120.670992,16.101978 C121.326697,16.4681319 120.272555,17.443956 119.848611,17.7037363 C119.572431,17.8562637 119.542527,17.84 119.251835,17.9024176 L113.607311,17.9024176 C113.331571,17.8562637 113.286714,17.8105495 113.286714,17.5213187 L114.690479,7.48615385 C114.797345,7.21186813 114.782392,7.18197802 114.966218,6.9221978" id="Fill-7"></path>
                    <path d="M123.952599,10.2167033 C123.6773,11.9696703 123.160123,13.7538462 124.288148,15.0962637 C124.608745,15.4773626 124.974199,15.7516484 125.478182,15.9046154 C125.890692,16.0575824 126.104423,16.101978 126.576303,16.101978 C128.027123,16.1182418 128.971762,15.1881319 129.185053,13.7687912 C129.567658,11.3287912 130.176748,8.99604396 127.58251,8.03604396 C127.187591,7.88351648 127.080725,7.89846154 126.638751,7.86857143 C125.142633,7.99032967 124.196235,8.64571429 123.952599,10.2167033 L123.952599,10.2167033 Z M128.041636,6.06813187 C130.238317,6.23604396 131.794244,7.79164835 131.505751,10.0949451 C131.443742,10.5516484 131.259916,12.5494505 130.971863,13.4646154 C130.238317,15.8272527 127.630006,17.9024176 125.220034,17.9024176 C122.914289,17.9024176 121.358801,16.0575824 121.649493,13.7687912 C121.816168,12.5182418 121.863224,11.0395604 122.471434,9.78945055 C123.465768,7.73054945 125.614952,6.23604396 127.796241,6.0843956 L128.041636,6.06813187 L128.041636,6.06813187 Z" id="Fill-8"></path>
                    <path d="M140.698826,10.1248352 C140.621426,9.34725275 140.668482,9.25538462 140.104689,8.73758242 C139.172804,7.86857143 137.098381,7.34945055 135.968157,8.66065934 C135.09828,9.68263736 134.90214,12.243956 134.932045,13.2202198 C134.976462,14.9745055 136.502045,16.3925275 138.365375,16.0720879 C138.822742,15.9951648 139.294622,15.8435165 139.677667,15.5072527 C140.37779,14.8975824 140.51456,14.0131868 140.606473,13.2052747 L137.860952,13.2052747 C137.311672,13.0984615 137.525843,12.6413187 137.813896,12.2602198 C138.196501,11.7872527 138.715877,11.436044 139.279669,11.4061538 L142.408235,11.4061538 C142.514221,11.4668132 142.591182,11.5586813 142.636479,11.6654945 C142.544566,12.2602198 142.499269,12.8848352 142.316322,13.4646154 C141.811459,15.0962637 140.45519,16.4830769 138.959073,17.2914286 C136.258849,18.7402198 132.857182,17.443956 132.979,14.3797802 C133.056401,11.9547253 133.39151,9.56087912 135.388972,7.73054945 C137.585213,5.7032967 141.110896,5.3367033 142.452653,7.8378022 C142.71344,8.34021978 142.835258,8.87428571 142.757857,9.30153846 C142.636479,9.98813187 141.262619,10.7802198 140.698826,10.1248352" id="Fill-9"></path>
                    <path d="M152.681401,6.0843956 C153.245193,5.96131868 153.182745,6.49538462 152.954941,6.86153846 C152.892493,6.96835165 152.803218,7.06021978 152.725818,7.16703297 C151.414406,8.6756044 150.117507,10.2017582 148.820168,11.7103297 L148.143353,16.349011 C148.018896,16.9125275 147.609465,17.3854945 147.09009,17.6901099 C146.67714,17.9345055 146.205261,18.0725275 146.173157,17.5076923 L146.959476,12.1683516 C146.104992,10.6734066 145.220162,9.19472527 144.365678,7.69978022 C144.335773,6.93714286 145.525807,5.76395604 146.256275,6.16 C147.051389,7.51736264 147.829353,8.87428571 148.636342,10.2312088 C149.583179,9.13362637 150.514625,8.02021978 151.458824,6.9221978 C151.808445,6.55604396 152.176978,6.19120879 152.681401,6.0843956" id="Fill-10"></path>
                    <path d="M52.408535,22.0843956 C52.7594762,21.9164835 53.0651204,21.8857143 53.1869384,22.2206593 C53.7973473,25.0567033 54.4227087,27.8940659 55.0331176,30.7301099 C56.329577,28.1371429 57.3212717,26.1705495 58.8622465,23.1050549 C59.1366667,22.6791209 59.4726555,22.3125275 59.9454146,22.0843956 C60.1745378,21.9771429 60.372437,21.9314286 60.4951345,21.9613187 C60.6323445,21.9771429 60.7383305,22.0531868 60.8148515,22.2206593 C61.4257003,25.0567033 62.0510616,27.8940659 62.6610308,30.7301099 C63.95793,28.1371429 64.9500644,26.1705495 66.4910392,23.1050549 C66.7654594,22.6791209 67.1005686,22.3125275 67.5733277,22.0843956 C68.0773109,21.8395604 68.4128599,21.9164835 68.3059944,22.4654945 C66.6427619,25.8206593 64.964577,29.1591209 63.3022241,32.4989011 C62.9666751,33.1547253 62.4477395,33.6426374 61.7150728,33.7951648 L61.3645714,33.7951648 C61.2423137,33.7789011 61.1204958,33.7182418 61.0444146,33.6276923 C60.4335658,30.8826374 59.8235966,28.1221978 59.2285798,25.3621978 C58.0385462,27.7410989 56.8485126,30.1204396 55.6738711,32.4989011 C55.3378824,33.1547253 54.8193866,33.6426374 54.0867199,33.7951648 L53.7362185,33.7951648 C53.6139608,33.7789011 53.4917031,33.7182418 53.4151821,33.6276923 C52.6983473,30.2879121 51.9507283,26.9327473 51.219381,23.5925275 C51.203549,22.9534066 51.8293501,22.3586813 52.408535,22.0843956" id="Fill-11"></path>
                    <path d="M69.1991793,33.5969231 C68.7866695,33.84 68.3134706,33.978022 68.2835658,33.4140659 L69.6868908,23.3793407 C69.7933165,23.1050549 69.7779244,23.0751648 69.9617507,22.8158242 C70.2823473,22.4193407 71.3817871,21.5041758 71.654888,22.2206593 L70.2357311,32.2540659 C70.1293053,32.8193407 69.7167955,33.2914286 69.1991793,33.5969231" id="Fill-21"></path>
                    <path d="M73.4773193,22.8153846 C73.797916,22.4189011 74.8964762,21.5037363 75.1722157,22.2202198 L73.797916,31.9951648 L79.1842913,31.9951648 C79.840437,32.3617582 78.7867339,33.3367033 78.3597115,33.5969231 C78.0866106,33.7498901 78.0540672,33.7336264 77.766014,33.7951648 L72.1184118,33.7951648 C71.8453109,33.7498901 71.7982549,33.7032967 71.7982549,33.4140659 L73.2015798,23.3789011 C73.3084454,23.1046154 73.293493,23.0747253 73.4773193,22.8153846" id="Fill-22"></path>
                    <path d="M82.3432017,22.8158242 C82.6611597,22.4193407 83.7619188,21.5041758 84.0354594,22.2206593 L82.6611597,31.9951648 L88.047535,31.9951648 C88.7036807,32.3617582 87.6504174,33.3367033 87.2255938,33.5969231 C86.9494146,33.7498901 86.9199496,33.7336264 86.6288179,33.7951648 L80.9838543,33.7951648 C80.7085546,33.7498901 80.6636975,33.7032967 80.6636975,33.4140659 L82.0670224,23.3793407 C82.1743277,23.1050549 82.1589356,23.0751648 82.3432017,22.8158242" id="Fill-12"></path>
                    <path d="M94.967409,31.1569231 C95.7743978,32.0114286 96.415591,31.9037363 97.6825854,31.8883516 C98.629423,31.872967 98.9174762,31.3701099 99.0392941,30.4092308 C99.4518039,27.4817582 93.1981905,29.4646154 93.9286583,25.0567033 C94.2492549,23.1208791 96.5220168,22.1749451 98.1399524,22.16 C98.7657535,22.1450549 99.7719608,22.0531868 100.443059,22.2518681 C100.718359,22.3428571 100.947482,22.4654945 101.175725,22.632967 C101.268078,22.709011 101.434314,22.9221978 101.419361,22.8764835 C101.908832,23.5323077 100.306289,24.9054945 99.6356303,24.5389011 C99.4817087,24.3714286 99.3444986,24.2646154 99.1633109,24.1573626 C99.0392941,24.1428571 98.9324286,24.050989 98.8110504,24.0197802 C98.2767227,23.8523077 96.7656527,23.7916484 96.1570028,24.1265934 C94.2338627,28.4426374 101.724566,25.3472527 101.099204,29.8298901 C100.795759,31.9503297 98.3237787,33.6725275 96.2643081,33.6887912 C94.9049608,33.6887912 94.0825798,33.7498901 93.1805994,32.8347253 C92.8925462,32.0404396 94.2193501,31.0193407 94.967409,31.1569231" id="Fill-13"></path>
                    <path d="M105.13151,28.8536264 L107.754773,28.8536264 C107.481672,27.6949451 107.19098,26.5371429 106.932392,25.3771429 C106.321543,26.5371429 105.727406,27.6949451 105.13151,28.8536264 L105.13151,28.8536264 Z M108.870485,33.6276923 C108.641801,32.6356044 108.413557,31.6448352 108.167283,30.6540659 L104.201824,30.6540659 C103.849563,31.3701099 103.469157,32.087033 103.103263,32.7881319 C102.798499,33.2004396 102.430406,33.5652747 101.958527,33.7336264 C101.347238,33.9463736 101.272916,33.6276923 101.439151,33.1384615 C103.163513,29.7995604 104.887874,26.4597802 106.612235,23.1050549 C106.885336,22.6791209 108.15277,21.3516484 108.472927,22.2206593 C109.250891,25.5758242 110.027975,28.916044 110.823529,32.2540659 C110.701711,32.9410989 109.434717,34.2830769 108.870485,33.6276923 L108.870485,33.6276923 Z" id="Fill-14"></path>
                    <path d="M112.947647,22.0843956 C113.300347,21.9164835 113.602913,21.8857143 113.72737,22.2206593 C114.336459,25.0567033 114.9627,27.8940659 115.573989,30.7301099 C116.868249,28.1371429 117.862143,26.1705495 119.402238,23.1050549 C119.675779,22.6791209 120.011328,22.3125275 120.485846,22.0843956 C120.98719,21.8395604 121.325378,21.9164835 121.218513,22.4654945 C119.553961,25.8206593 117.876655,29.1591209 116.212104,32.4989011 C115.876555,33.1547253 115.359818,33.6426374 114.627151,33.7951648 L114.27709,33.7951648 C114.152633,33.7789011 114.030815,33.7182418 113.956493,33.6276923 C113.238339,30.2879121 112.49028,26.9327473 111.757613,23.5925275 C111.742661,22.9534066 112.368902,22.3586813 112.947647,22.0843956" id="Fill-15"></path>
                    <path d="M128.972641,23.5630769 C128.68195,23.716044 128.652045,23.6993407 128.378944,23.7617582 L124.153137,23.7617582 L123.662787,27.1463736 L128.423801,27.1463736 C129.094459,27.5125275 128.043395,28.4887912 127.616373,28.7481319 C127.325241,28.8997802 127.295776,28.8843956 127.020036,28.9454945 L123.420031,28.9454945 L122.992569,31.9951648 L128.378944,31.9951648 C129.03465,32.3617582 127.981387,33.3367033 127.553924,33.5969231 C127.280824,33.7498901 127.24872,33.7336264 126.960227,33.7951648 L121.315263,33.7951648 C121.039524,33.7498901 120.995106,33.7032967 120.995106,33.4140659 L122.398431,23.3793407 C122.65702,22.6479121 123.357583,21.9925275 124.137745,21.9613187 L129.782709,21.9613187 C130.453807,22.3274725 129.400104,23.3032967 128.972641,23.5630769" id="Fill-16"></path>
                    <path d="M135.311132,22.8158242 C135.631289,22.4193407 136.729409,21.5041758 137.005148,22.2206593 C136.975683,22.4347253 135.357748,28.7323077 136.455868,30.5476923 C137.660854,32.5287912 141.231395,32.7125275 141.67337,29.661978 C141.993966,27.5736264 142.267507,25.469011 142.558199,23.3793407 C142.664185,23.1050549 142.650112,23.0751648 142.833938,22.8158242 C143.151896,22.4193407 144.252655,21.5041758 144.525756,22.2206593 L143.641367,28.5032967 C143.489644,29.6008791 142.970709,30.683956 142.192745,31.552967 C139.993866,33.9626374 136.227625,34.847033 134.562633,32.087033 C134.27458,31.5991209 134.182667,31.0650549 134.120658,30.4865934 C134.090754,30.2417582 134.120658,29.8606593 134.150563,29.661978 C134.441255,27.5736264 134.746459,25.469011 135.037591,23.3793407 C135.144457,23.1050549 135.126866,23.0751648 135.311132,22.8158242" id="Fill-17"></path>
                    <path d="M146.575552,31.1569231 C147.385619,32.0114286 148.026812,31.9037363 149.291168,31.8883516 C150.238006,31.872967 150.528258,31.3701099 150.650076,30.4092308 C151.062585,27.4817582 144.806333,29.4646154 145.53944,25.0567033 C145.860036,23.1208791 148.133678,22.1749451 149.751174,22.16 C150.374776,22.1450549 151.383182,22.0531868 152.05384,22.2518681 C152.327381,22.3428571 152.555625,22.4654945 152.786947,22.632967 C152.876221,22.709011 153.045535,22.9221978 153.030583,22.8764835 C153.517415,23.5323077 151.91751,24.9054945 151.243773,24.5389011 C151.09293,24.3714286 150.95572,24.2646154 150.771894,24.1573626 C150.650076,24.1428571 150.54321,24.050989 150.421832,24.0197802 C149.887504,23.8523077 148.376874,23.7916484 147.765585,24.1265934 C145.845084,28.4426374 153.336227,25.3472527 152.709986,29.8298901 C152.404342,31.9503297 149.932361,33.6725275 147.872451,33.6887912 C146.515742,33.6887912 145.691162,33.7498901 144.791381,32.8347253 C144.501129,32.0404396 145.827933,31.0193407 146.575552,31.1569231" id="Fill-18"></path>
                    <path d="M155.780501,29.7076923 C157.795994,29.7687912 155.827997,32.4989011 154.682381,33.2004396 C152.744728,34.3274725 153.812944,29.647033 155.780501,29.7076923" id="Fill-19"></path>
                </g>
            </g>
        </g>
    </g>
</svg>