<?xml version="1.0" encoding="UTF-8" standalone="no"?>
<svg width="46px" height="50px" viewBox="0 0 46 50" version="1.1" xmlns="http://www.w3.org/2000/svg" xmlns:xlink="http://www.w3.org/1999/xlink" xmlns:sketch="http://www.bohemiancoding.com/sketch/ns">
    <!-- Generator: Sketch 3.3.2 (12043) - http://www.bohemiancoding.com/sketch -->
    <title>mic</title>
    <desc>Created with Sketch.</desc>
    <defs></defs>
    <g id="Main" stroke="none" stroke-width="1" fill="none" fill-rule="evenodd" sketch:type="MSPage">
        <g sketch:type="MSArtboardGroup" transform="translate(-934.000000, -532.000000)" id="Track-4" fill="#CCCCCC">
            <g sketch:type="MSLayerGroup" transform="translate(885.000000, 480.000000)">
                <g id="mic" transform="translate(49.000000, 52.000000)" sketch:type="MSShapeGroup">
                    <path d="M16.9235,41.7009901 L37.9735,15.6767327 L30.869,10.7519802 L13.3715,39.239604 L16.9235,41.7009901 L16.9235,41.7009901 Z" id="Shape"></path>
                    <path d="M0.7995,47.7549505 C2.0265,45.639604 3.6345,44.05 6.182,43.8143564 C7.606,43.6816832 9.393,44.1014851 10.6825,43.7935644 C11.448,43.6094059 11.9775,43.1678218 12.4195,42.5316832 L13.034,41.6475248 L14.8205,42.8643564 L14.2065,43.7490099 C13.403,44.9054455 12.3635,45.6891089 10.9505,45.9475248 C9.4015,46.229703 7.928,45.7920792 6.4195,45.9386139 C4.607,46.1143564 3.5365,47.3460396 2.6795,48.8237624 L2.1395,49.7544554 L0.26,48.6846535 L0.7995,47.7549505 L0.7995,47.7549505 Z" id="Shape"></path>
                    <path d="M44.492,12.0727723 C46.8955,8.67425743 46.061,3.98811881 42.628,1.60891089 C39.196,-0.770792079 34.463,0.0559405941 32.059,3.45445545 C31.135,4.76138614 30.6905,6.25990099 30.6875,7.74405941 L40.89,14.8163366 C42.298,14.3064356 43.568,13.379703 44.492,12.0727723 L44.492,12.0727723 Z" id="Shape"></path>
                </g>
            </g>
        </g>
    </g>
</svg>