<?xml version="1.0" encoding="UTF-8" standalone="no"?>
<svg width="210px" height="210px" viewBox="0 0 210 210" version="1.1" xmlns="http://www.w3.org/2000/svg" xmlns:xlink="http://www.w3.org/1999/xlink" xmlns:sketch="http://www.bohemiancoding.com/sketch/ns">
    <!-- Generator: Sketch 3.3.2 (12043) - http://www.bohemiancoding.com/sketch -->
    <title>overlay</title>
    <desc>Created with Sketch.</desc>
    <defs></defs>
    <g id="Main" stroke="none" stroke-width="1" fill="none" fill-rule="evenodd" sketch:type="MSPage">
        <g sketch:type="MSArtboardGroup" transform="translate(-215.000000, -100.000000)" id="Track-1" fill="">
            <g sketch:type="MSLayerGroup" transform="translate(215.000000, 95.000000)">
                <path d="M105,215 C162.989899,215 210,167.989899 210,110 C210,52.0101013 162.989899,5 105,5 C47.0101013,5 0,52.0101013 0,110 C0,167.989899 47.0101013,215 105,215 Z M105,185 C146.421356,185 180,151.421356 180,110 C180,68.5786438 146.421356,35 105,35 C63.5786438,35 30,68.5786438 30,110 C30,151.421356 63.5786438,185 105,185 Z" id="overlay" sketch:type="MSShapeGroup" transform="translate(105.000000, 110.000000) scale(-1, 1) rotate(-90.000000) translate(-105.000000, -110.000000) "></path>
            </g>
        </g>
    </g>
</svg>