<?xml version="1.0" encoding="UTF-8" standalone="no"?>
<svg width="25px" height="11px" viewBox="0 0 25 11" version="1.1" xmlns="http://www.w3.org/2000/svg" xmlns:xlink="http://www.w3.org/1999/xlink" xmlns:sketch="http://www.bohemiancoding.com/sketch/ns">
    <!-- Generator: Sketch 3.3.2 (12043) - http://www.bohemiancoding.com/sketch -->
    <title>soundcloud</title>
    <desc>Created with Sketch.</desc>
    <defs></defs>
    <g id="Main" stroke="none" stroke-width="1" fill="none" fill-rule="evenodd" sketch:type="MSPage">
        <g sketch:type="MSArtboardGroup" transform="translate(-1229.000000, -24.000000)" id="Header-Copy" fill="#FFFFFF">
            <g sketch:type="MSLayerGroup" transform="translate(9.000000, 10.000000)">
                <g id="Soundcloud" transform="translate(1066.000000, 5.000000)" sketch:type="MSShapeGroup">
                    <path d="M154.28311,15.5788079 C154.230951,15.5788079 154.189547,15.6196667 154.182825,15.6779585 L154,17.0848624 L154.182825,18.4675235 C154.189547,18.5258153 154.230951,18.5664017 154.28311,18.5664017 C154.333656,18.5664017 154.374792,18.5260877 154.382857,18.4680682 L154.382857,18.4680682 L154.382857,18.4677959 C154.382857,18.4677959 154.382857,18.4677959 154.382857,18.4680682 L154.599559,17.0848624 L154.382857,15.6776862 C154.37506,15.6196667 154.333387,15.5788079 154.28311,15.5788079 L154.28311,15.5788079 Z M155.311233,14.8101181 C155.302629,14.7496471 155.259881,14.7079712 155.207184,14.7079712 C155.154218,14.7079712 155.110394,14.7510091 155.103135,14.8101181 C155.103135,14.8106629 154.857396,17.0848624 154.857396,17.0848624 L155.103135,19.3092143 C155.110125,19.3688681 155.15395,19.411906 155.207184,19.411906 C155.259612,19.411906 155.302361,19.3699577 155.310964,19.3097591 L155.590579,17.0848624 L155.311233,14.8101181 L155.311233,14.8101181 Z M159.183901,12.7118837 C159.083078,12.7118837 158.999731,12.795508 158.994892,12.9017408 L158.799161,17.0867692 L158.994892,19.7913478 C159,19.8970359 159.083078,19.9803878 159.183901,19.9803878 C159.284186,19.9803878 159.367264,19.8967635 159.373178,19.7908031 L159.373178,19.7916202 L159.594451,17.0867692 L159.373178,12.9017408 C159.367264,12.795508 159.284186,12.7118837 159.183901,12.7118837 L159.183901,12.7118837 Z M157.179545,14.1664562 C157.102113,14.1664562 157.038931,14.2291063 157.032747,14.3127306 L156.812282,17.0856796 L157.032747,19.7684669 C157.038662,19.8515464 157.102113,19.9141966 157.179545,19.9141966 C157.25617,19.9141966 157.319353,19.8515464 157.326074,19.7684669 L157.576652,17.0856796 L157.326074,14.3121858 C157.319353,14.2291063 157.25617,14.1664562 157.179545,14.1664562 L157.179545,14.1664562 Z M161.220788,19.9801154 C161.345808,19.9801154 161.447438,19.8779685 161.452546,19.7472204 L161.644513,17.0881311 L161.452815,11.5163559 C161.447707,11.3856078 161.346077,11.2834609 161.221057,11.2834609 C161.094962,11.2834609 160.993063,11.3858802 160.98903,11.5166283 C160.98903,11.5169007 160.818842,17.0878588 160.818842,17.0878588 L160.98903,19.7480375 C160.993063,19.8776961 161.094962,19.9801154 161.220788,19.9801154 L161.220788,19.9801154 Z M165.390816,19.9926454 C165.562886,19.9926454 165.704845,19.8490949 165.708071,19.672585 L165.708071,19.6744917 L165.708071,19.672585 L165.841964,17.0897655 L165.708071,10.6547805 C165.705114,10.478543 165.562886,10.3347201 165.390816,10.3347201 C165.218476,10.3347201 165.076249,10.4782706 165.07356,10.6550529 L164.953917,17.0875864 C164.953917,17.0916722 165.07356,19.6742193 165.07356,19.6742193 C165.076249,19.8490949 165.218745,19.9926454 165.390816,19.9926454 L165.390816,19.9926454 Z M163.289939,19.9825669 C163.439695,19.9825669 163.560413,19.8608078 163.564446,19.7055444 L163.564446,19.7074512 L163.727375,17.0886759 L163.564177,11.4765867 C163.560144,11.3213233 163.439426,11.1998366 163.28967,11.1998366 C163.13884,11.1998366 163.018121,11.3213233 163.014895,11.4765867 L162.869979,17.0889483 L163.015164,19.7071788 C163.01839,19.8608078 163.139108,19.9825669 163.289939,19.9825669 L163.289939,19.9825669 Z M158.177824,19.9580517 C158.266817,19.9580517 158.338872,19.8858678 158.345593,19.7908031 L158.581653,17.0856796 L158.345593,14.5123938 C158.339141,14.4173291 158.267086,14.34569 158.177824,14.34569 C158.087487,14.34569 158.015433,14.4178739 158.009787,14.5134834 L157.801957,17.0856796 L158.009787,19.7905307 C158.015701,19.8858678 158.087487,19.9580517 158.177824,19.9580517 L158.177824,19.9580517 Z M156.189332,19.8098705 C156.254396,19.8098705 156.307093,19.7578436 156.314621,19.6859322 L156.579717,17.0851348 L156.314889,14.3862764 C156.307093,14.3140926 156.254396,14.2620657 156.189332,14.2620657 C156.123461,14.2620657 156.070764,14.314365 156.064043,14.3862764 C156.064043,14.3865488 155.830672,17.0851348 155.830672,17.0851348 L156.064043,19.6853874 C156.070495,19.7575713 156.123192,19.8098705 156.189332,19.8098705 L156.189332,19.8098705 Z M164.336345,11.3831563 C164.173684,11.3831563 164.043287,11.5141768 164.04006,11.6819701 L163.907781,17.0892207 L164.04006,19.6911076 C164.043287,19.8567219 164.173415,19.9877424 164.336345,19.9877424 C164.498736,19.9877424 164.628327,19.8569943 164.632091,19.6892009 L164.632091,19.69138 L164.780502,17.0894931 L164.632091,11.6814254 C164.628327,11.5141768 164.498736,11.3831563 164.336345,11.3831563 L164.336345,11.3831563 Z M160.19858,19.9855632 C160.310964,19.9855632 160.403721,19.8926776 160.409098,19.7741872 L160.615583,17.0875864 L160.409098,11.9453731 C160.403452,11.8266102 160.310964,11.733997 160.19858,11.733997 C160.085121,11.733997 159.992633,11.8268826 159.987794,11.9453731 C159.987794,11.9456454 159.804969,17.0875864 159.804969,17.0875864 L159.988063,19.7752767 C159.992633,19.8926776 160.085121,19.9855632 160.19858,19.9855632 L160.19858,19.9855632 Z M162.504329,19.7319664 L162.504329,19.7306045 L162.681777,17.0884035 L162.504329,11.3289503 C162.500027,11.1859446 162.388719,11.0737191 162.251331,11.0737191 C162.113137,11.0737191 162.001828,11.1856722 161.998064,11.3289503 L161.840512,17.0881311 L161.998333,19.731694 C162.002097,19.8733378 162.113405,19.9852908 162.251331,19.9852908 C162.388987,19.9852908 162.499758,19.8733378 162.504329,19.7308769 L162.504329,19.7319664 L162.504329,19.7319664 Z M175.925311,13.7684917 C175.504006,13.7684917 175.102059,13.8548399 174.735871,14.0103757 C174.491208,11.2025605 172.167178,9 169.332312,9 C168.638651,9 167.962467,9.13837506 167.365328,9.37235966 C167.133301,9.46333853 167.071463,9.55704133 167.069312,9.73872669 L167.069312,19.6265508 C167.071732,19.8172251 167.217723,19.9760295 167.401355,19.9948246 C167.409152,19.9956417 175.870194,20 175.925042,20 C177.623165,20 179,18.6050813 179,16.884382 C179,15.1636827 177.623434,13.7684917 175.925311,13.7684917 L175.925311,13.7684917 Z M166.440716,9.73001015 C166.256009,9.73001015 166.104372,9.88363916 166.101683,10.0724067 L165.962951,17.0905827 L166.101952,19.6377188 C166.104372,19.8237625 166.256009,19.9771191 166.440716,19.9771191 C166.624886,19.9771191 166.776523,19.8237625 166.779212,19.6349949 L166.779212,19.6379912 L166.930042,17.0905827 L166.779212,10.0718619 C166.776523,9.88363916 166.624886,9.73001015 166.440716,9.73001015 L166.440716,9.73001015 Z" id="soundcloud"></path>
                </g>
            </g>
        </g>
    </g>
</svg>