<?xml version="1.0" encoding="UTF-8" standalone="no"?>
<svg width="19px" height="15px" viewBox="0 0 19 15" version="1.1" xmlns="http://www.w3.org/2000/svg" xmlns:xlink="http://www.w3.org/1999/xlink" xmlns:sketch="http://www.bohemiancoding.com/sketch/ns">
    <!-- Generator: Sketch 3.3.2 (12043) - http://www.bohemiancoding.com/sketch -->
    <title>speaker</title>
    <desc>Created with Sketch.</desc>
    <defs></defs>
    <g id="Main" stroke="none" stroke-width="1" fill="none" fill-rule="evenodd" sketch:type="MSPage">
        <g sketch:type="MSArtboardGroup" transform="translate(-215.000000, -328.000000)" id="Track-1" fill="#FFFFFF">
            <g sketch:type="MSLayerGroup" transform="translate(215.000000, 95.000000)">
                <g id="Volume" transform="translate(0.000000, 230.000000)" sketch:type="MSShapeGroup">
                    <g id="speaker" transform="translate(0.000000, 3.000000)">
                        <path d="M0,4.63636364 L0,10.0909091 L4.07142857,10.0909091 L8.14285714,14.1818182 L9.5,14.1818182 L9.5,0.545454545 L8.14285714,0.545454545 L4.07142857,4.63636364 L0,4.63636364 Z" id="Shape"></path>
                        <path d="M16.625,0.545454545 L15.5647321,1.39772727 C16.8746329,3.03381818 17.6427893,5.10040909 17.6427893,7.36363636 C17.6427893,9.62686364 16.874565,11.6934545 15.5647321,13.3295455 L16.625,14.1818182 C18.11555,12.3140455 19,9.94390909 19,7.36363636 C19,4.78336364 18.1154957,2.41322727 16.625,0.545454545 L16.625,0.545454545 Z M14.5044643,2.25 L13.4017857,3.14495455 C14.3353779,4.31290909 14.9285714,5.74895455 14.9285714,7.36363636 C14.9285714,8.97831818 14.3353779,10.4143636 13.4017857,11.5824545 L14.5044643,12.4772727 C15.6215557,11.0766818 16.2857143,9.29809091 16.2857143,7.36363636 C16.2857143,5.42918182 15.6215557,3.65059091 14.5044643,2.25 L14.5044643,2.25 Z M12.3839286,3.95454545 L11.3236607,4.80681818 C11.8818129,5.50704545 12.2142857,6.39668182 12.2142857,7.36363636 C12.2142857,8.33059091 11.8818129,9.22022727 11.3236607,9.92045455 L12.3839286,10.7727273 C13.1240057,9.84054545 13.5714286,8.64872727 13.5714286,7.36363636 C13.5714286,6.07854545 13.1240057,4.88672727 12.3839286,3.95454545 L12.3839286,3.95454545 Z" id="Shape"></path>
                    </g>
                </g>
            </g>
        </g>
    </g>
</svg>